<svg xmlns="http://www.w3.org/2000/svg" viewBox="0 0 700 500"><defs><linearGradient id="g" x1="0" y1="0" x2="1" y2="1"><stop stop-color="#b8ff2c"/><stop offset="1" stop-color="#eaf8c9"/></linearGradient></defs><rect width="700" height="500" rx="36" fill="#171915"/><rect x="42" y="42" width="616" height="416" rx="28" fill="#f7f4eb"/><rect x="70" y="70" width="560" height="52" rx="16" fill="#171915"/><circle cx="96" cy="96" r="7" fill="#b8ff2c"/><text x="120" y="103" fill="#fff" font-family="Arial" font-size="17" font-weight="700">CHATGPT PROMPT VAULT</text><rect x="70" y="150" width="250" height="274" rx="20" fill="url(#g)"/><text x="96" y="190" fill="#171915" font-family="Arial" font-size="15" font-weight="700">PROMPT / 001</text><text x="96" y="235" fill="#171915" font-family="Arial" font-size="26" font-weight="800">RESEARCH</text><text x="96" y="267" fill="#171915" font-family="Arial" font-size="26" font-weight="800">SMARTER.</text><rect x="96" y="305" width="160" height="10" rx="5" fill="#171915" opacity=".35"/><rect x="96" y="329" width="185" height="10" rx="5" fill="#171915" opacity=".25"/><rect x="96" y="353" width="120" height="10" rx="5" fill="#171915" opacity=".25"/><rect x="344" y="150" width="286" height="80" rx="20" fill="#fff"/><text x="372" y="185" fill="#777" font-family="Arial" font-size="14">WRITING</text><text x="372" y="212" fill="#171915" font-family="Arial" font-size="20" font-weight="800">Create with clarity</text><rect x="344" y="246" width="286" height="80" rx="20" fill="#fff"/><text x="372" y="281" fill="#777" font-family="Arial" font-size="14">BUSINESS</text><text x="372" y="308" fill="#171915" font-family="Arial" font-size="20" font-weight="800">Plan the next move</text><rect x="344" y="342" width="286" height="82" rx="20" fill="#171915"/><text x="372" y="378" fill="#b8ff2c" font-family="Arial" font-size="14">PRODUCTIVITY</text><text x="372" y="405" fill="#fff" font-family="Arial" font-size="20" font-weight="800">Turn ideas into action</text></svg>