<svg xmlns="http://www.w3.org/2000/svg" viewBox="0 0 800 520"><rect width="800" height="520" rx="32" fill="#211b25"/><text x="52" y="72" fill="#fff" font-family="Arial" font-size="22" font-weight="700">SOCIAL CONTENT ENGINE</text><text x="52" y="96" fill="#aaa0ad" font-family="Arial" font-size="11">30-DAY CONTENT SYSTEM</text><rect x="52" y="126" width="696" height="314" rx="20" fill="#f4f1f5"/><text x="78" y="160" fill="#6d6370" font-family="Arial" font-size="10" font-weight="700">WEEK 01</text><g fill="#fff" stroke="#ddd7df"><rect x="78" y="182" width="150" height="108" rx="12"/><rect x="246" y="182" width="150" height="108" rx="12"/><rect x="414" y="182" width="150" height="108" rx="12"/><rect x="582" y="182" width="140" height="108" rx="12"/></g><g font-family="Arial" font-size="10" font-weight="700" fill="#332d35"><text x="94" y="207">MON</text><text x="262" y="207">TUE</text><text x="430" y="207">WED</text><text x="598" y="207">THU</text></g><g font-family="Arial" font-size="9" fill="#777078"><text x="94" y="232">HOOK</text><text x="94" y="249">Value post</text><text x="262" y="232">CAROUSEL</text><text x="262" y="249">3 lessons</text><text x="430" y="232">SHORT VIDEO</text><text x="430" y="249">Behind scenes</text><text x="598" y="232">CTA</text><text x="598" y="249">DM / enquiry</text></g><rect x="78" y="314" width="644" height="88" rx="14" fill="#242024"/><text x="100" y="342" fill="#d9f94c" font-family="Arial" font-size="10" font-weight="700">HOOK → VALUE → PROOF → CTA</text><text x="100" y="369" fill="#ddd8df" font-family="Arial" font-size="12">Turn one idea into a post, caption, story and short video.</text></svg>